Coordinates
version=1
nRows=9
nColumns=52
inDegrees=yes

Units are S.I. units (second, meters, Newtons, ...)
If the header above contains a line with 'inDegrees', this indicates whether rotational values are in degrees (yes) or radians (no).

endheader
time	pelvis_tilt	pelvis_list	pelvis_rotation	pelvis_tx	pelvis_ty	pelvis_tz	hip_flexion_r	hip_adduction_r	hip_rotation_r	knee_angle_r	knee_angle_r_beta	ankle_angle_r	subtalar_angle_r	mtp_angle_r	hip_flexion_l	hip_adduction_l	hip_rotation_l	knee_angle_l	knee_angle_l_beta	ankle_angle_l	subtalar_angle_l	mtp_angle_l	lumbar_bending	lumbar_extension	lumbar_twist	thorax_bending	thorax_extension	thorax_twist	head_bending	head_extension	head_twist	scapula_abduction_r	scapula_elevation_r	scapula_upward_rot_r	scapula_abduction_l	scapula_elevation_l	scapula_upward_rot_l	shoulder_r_x	shoulder_r_y	shoulder_r_z	shoulder_l_x	shoulder_l_y	shoulder_l_z	elbow_flexion_r	elbow_flexion_l	pro_sup_r	pro_sup_l	wrist_flexion_r	wrist_deviation_r	wrist_flexion_l	wrist_deviation_l
      0.80000000	    -26.07235055	    -35.63415304	    -98.08512544	      0.02224990	     -0.12340502	     75.82177425	     66.97641584	     24.82704969	    -36.75184453	     21.11322269	      0.36849525	    -19.97831195	      4.66404119	      5.06010634	     67.96673087	     -5.75525150	     39.24187716	     44.57879313	      0.77804672	     28.70518350	    -19.09111390	     -9.22558239	      0.04632828	    -64.34225058	     -9.41234688	    -18.77813170	    -24.10218994	     17.62557455	     -7.67632554	    -61.79992326	    -32.19435239	    -52.10346248	      4.27376804	    -15.51741737	    -56.01008845	     -9.59518293	     20.40286360	     -1.50854184	     -5.09299516	     62.65543249	    177.57375750	   -249.03149766	     87.79946274	     57.44935083	      3.34609892	     46.76314097	     83.65976551	     -1.63013960	    -20.68821372	    -23.19249024	     -7.12132205
      0.83333300	    -27.29151327	    -33.76940204	    -98.89683305	      0.02100078	     -0.13621237	     76.71163947	     68.95211839	     22.61563778	    -36.61620419	     22.70725225	      0.39631632	    -18.45471102	      4.98278464	      4.37692690	     70.59214122	     -5.42140749	     38.68601913	     44.73151807	      0.78071227	     27.74645896	    -18.33437431	     -8.50459083	      7.57762374	    -64.12690551	     -0.83838686	     -6.67089899	    -23.85844156	     -0.81144111	     28.03980181	    -61.41312069	     -7.16820848	    -52.58845320	      4.49287085	    -15.32482783	    -55.01026455	     -9.34523966	     21.99913398	      0.24084149	     -5.23060982	     61.23544450	    178.11400205	   -245.00073846	     88.22812106	     56.34387708	      2.13250104	     46.94685949	     83.55208258	     -1.59461366	    -20.36310078	    -22.42987718	     -7.00679758
      0.86666700	    -29.45229723	    -32.93615660	    -99.95303671	      0.01661211	     -0.12924142	     77.02460358	     68.67677185	     22.54604217	    -39.86891153	     22.65338636	      0.39537618	    -19.37581878	      5.57056546	      4.57275843	     69.91523919	     -5.55991901	     39.95139779	     44.59696222	      0.77836383	     29.90262410	    -19.93447910	     -8.87088904	      8.09093290	    -64.71366348	      2.96471800	      2.55932807	    -25.50903192	     -9.48033603	     36.87410643	    -62.41261262	      9.45252797	    -51.61220396	      5.63869938	    -17.09559735	    -51.86092779	    -11.26623669	     21.31721325	      0.35868066	     -6.57112679	     61.16456929	    179.89530091	   -244.39203108	     89.89471889	     56.54981995	      2.19017024	     46.97454012	     83.48843871	     -1.82099490	    -20.28831073	    -22.39720067	     -7.09192359
      0.90000000	    -23.84378435	    -35.63708338	   -102.02628798	      0.00006513	     -0.12782252	     77.37634248	     65.47958042	     23.82039362	    -39.00810499	     26.43748143	      0.46142110	    -17.56377006	      4.70053333	      4.25587118	     65.19489297	     -3.38572917	     39.94510931	     52.66384382	      0.91915747	     29.90241772	    -19.93632740	     -8.58850769	    -11.18802235	    -64.71345487	    -14.47756656	    -22.58940184	    -25.62871961	     27.85024896	    -16.67925593	    -62.40971700	    -24.13760255	    -51.61353648	      5.60462386	    -17.08205338	    -52.25289036	    -11.31746893	     20.47362682	     -9.81114391	     -6.26880128	     60.38099277	    179.67483679	   -248.87157588	     89.78502112	     54.51222142	     -0.46456144	     49.39938076	     85.00896263	     -0.29984984	    -20.58433250	    -21.39293113	     -9.56174250
      0.93333300	    -35.57116113	    -31.72990700	   -100.90898772	     -0.03414780	     -0.12178613	     77.42929398	     68.88097470	     28.32211150	    -38.89141590	     14.09577880	      0.24601775	    -24.88606189	      4.56553628	      6.30289706	     65.60800756	    -11.36106637	     39.57989223	     34.17602188	      0.59648411	     29.47409938	    -19.65351680	     -9.40852748	     -3.89501080	    -64.60849099	    -14.24624953	    -15.83276022	    -24.51882056	     24.43299152	    -56.25638993	    -62.25320843	     -5.37070012	    -51.73473888	      5.35866638	    -16.42697003	    -52.84646342	    -10.88273380	     18.51065363	     -6.67444341	     -4.21607623	     56.79452450	    179.28562532	   -248.11871613	     89.34160692	     58.90569406	      1.50235935	     50.61096759	     84.80349783	      0.62506719	    -20.61792807	    -23.79285267	    -11.94130072
      0.96666700	    -37.75078355	    -31.18972658	    -99.52624877	     -0.01832180	     -0.13033873	     76.99230254	     69.41103599	     24.08442587	    -39.71905706	     17.46401940	      0.30480464	    -24.65364089	      1.32118965	      6.25687548	     67.58287113	     -6.57031842	     39.90959631	     39.42767970	      0.68814283	     29.83788922	    -19.89140718	     -9.43232823	     10.96987453	    -64.70447966	    -12.42892751	    -17.27814017	    -25.57792199	     10.32663837	    -49.23560813	    -62.39032806	    -18.06673539	    -51.62195213	      5.59039140	    -17.04035304	    -52.07409250	    -10.96909115	     20.45840698	     -9.08579323	     -2.45389106	     62.76892457	    179.75243383	   -247.71231274	     89.78090869	     53.81957904	      4.50859529	     51.69437109	     83.88739460	      1.70948013	    -20.06906416	    -23.79849002	    -11.01218881
      1.00000000	    -34.20135719	    -26.62436924	   -102.19981158	      0.07891079	     -0.16420289	     78.03620908	     74.88661918	     16.98927350	    -36.77230881	     20.87047365	      0.36425848	    -24.16063732	     -0.89178981	      5.93402768	     72.40605094	     -2.16308930	     39.61289636	     41.96528203	      0.73243234	     28.57954441	    -19.26941692	     -8.72802215	     29.12741775	    -64.46047974	      4.65005294	     -3.18217920	    -12.62163573	    -38.67220167	    -21.86477686	    -62.09430588	    -14.83103521	    -51.87499286	      5.17651358	    -15.68205811	    -55.74944584	    -10.01495731	     21.12962027	     -7.47740514	     14.90965373	     64.00777179	    177.30682369	   -247.60339243	     87.64953310	     48.41467331	      6.53813294	     52.99838514	     83.10607703	      2.28170875	    -19.60539909	    -23.21680088	    -10.86537487
      1.03333000	    -17.17471352	    -40.19936073	   -114.69614814	     -0.03759159	     -0.11442353	     78.00637910	     56.29569308	     28.59161486	    -31.66097465	     28.29055714	      0.49376337	    -23.45754630	     -1.22038428	      5.45309433	     52.15611894	     -2.95799136	     39.86148753	     57.09942842	      0.99657303	     29.89086825	    -19.93581363	     -7.28098521	    -43.02495409	    -64.70735265	    -14.84694068	    -29.71996767	    -17.47778319	     46.98253746	    -18.73081823	    -62.41129659	    -26.93427641	    -51.61603558	      5.63327411	    -17.09917614	    -51.76422672	    -11.35446639	     20.05999405	    -17.61186902	      0.19115880	     57.00298520	    179.71523433	   -253.65134711	     89.75964107	     54.10800905	      5.11680510	     54.29549053	     84.91421343	     -1.22913435	    -19.08813811	    -22.53289820	    -11.60945989
      1.06667000	    -32.23031388	    -28.12456054	    -99.31743432	     -0.01980358	     -0.15393582	     78.42875175	     73.70431490	     14.46491286	    -39.20061824	     28.45830351	      0.49669110	    -22.73404190	     -3.74808153	      5.08910493	     69.93528881	      4.10848649	     39.95220433	     52.05438526	      0.90852041	     29.89134886	    -19.93180007	     -5.62905210	     10.83212755	    -64.71960189	     -3.86832119	     -2.42381340	    -22.24196631	    -20.13881399	    -35.88479934	    -62.40749860	     15.46823863	    -51.59697880	      5.65932567	    -17.04102672	    -52.27739770	    -11.07878647	     42.19068651	    -15.03211765	      6.53012377	     62.45869287	    172.36525623	   -252.80119514	     81.93731470	     45.31137780	     -2.73255277	     55.09849988	     84.15304762	      0.00755649	    -19.08934728	    -21.85648413	    -16.22733477
